<svg xmlns="http://www.w3.org/2000/svg" viewBox="0 0 100 100" fill="white">
  <!-- Antenna -->
  <rect x="46" y="4" width="8" height="12" rx="4"/>
  <circle cx="50" cy="4" r="5"/>
  <!-- Head -->
  <rect x="18" y="16" width="64" height="44" rx="12"/>
  <!-- Eyes -->
  <circle cx="36" cy="34" r="9" fill="rgba(0,0,0,0.35)"/>
  <circle cx="64" cy="34" r="9" fill="rgba(0,0,0,0.35)"/>
  <circle cx="36" cy="34" r="5" fill="white"/>
  <circle cx="64" cy="34" r="5" fill="white"/>
  <circle cx="38" cy="32" r="2" fill="rgba(0,0,0,0.5)"/>
  <circle cx="66" cy="32" r="2" fill="rgba(0,0,0,0.5)"/>
  <!-- Mouth -->
  <rect x="32" y="48" width="36" height="6" rx="3" fill="rgba(0,0,0,0.3)"/>
  <rect x="36" y="49" width="6" height="4" rx="1" fill="white"/>
  <rect x="47" y="49" width="6" height="4" rx="1" fill="white"/>
  <rect x="58" y="49" width="6" height="4" rx="1" fill="white"/>
  <!-- Body -->
  <rect x="26" y="64" width="48" height="30" rx="10"/>
  <!-- Chest panel -->
  <rect x="34" y="70" width="14" height="10" rx="4" fill="rgba(0,0,0,0.25)"/>
  <rect x="52" y="70" width="14" height="10" rx="4" fill="rgba(0,0,0,0.25)"/>
  <!-- Arms -->
  <rect x="8" y="64" width="14" height="24" rx="7"/>
  <rect x="78" y="64" width="14" height="24" rx="7"/>
</svg>
